<?xml version="1.0" encoding="UTF-8"?> <svg xmlns="http://www.w3.org/2000/svg" width="243" height="60" viewBox="0 0 243 60" fill="none"><path d="M72.7532 15.86V24.304H72.8704C73.4568 23.6004 74.2778 23.014 74.9814 22.5449C75.8024 22.0757 76.6233 21.8412 77.5616 21.8412C78.1479 21.8412 78.7343 21.9585 79.3207 22.0757C79.9071 22.193 80.3762 22.5449 80.8453 22.8967C81.3144 23.2485 81.6663 23.7176 81.9008 24.304C82.1354 24.8904 82.2527 25.5941 82.2527 26.5323V38.2601H80.0244V26.6496C80.0244 25.5941 79.7898 24.8904 79.3207 24.4213C78.8516 23.9522 78.2652 23.8349 77.4443 23.8349C76.9752 23.8349 76.6233 23.9522 76.1542 24.0695C75.6851 24.1868 75.3333 24.4213 74.8642 24.6559C74.5123 24.8904 74.0432 25.125 73.6914 25.4768C73.3395 25.7114 72.9877 26.0632 72.7532 26.2978V38.1428H70.5249V15.86H72.7532Z" fill="#FF6900"></path><path d="M85.8883 25.125C86.3574 24.1867 87.1784 23.3658 88.1166 22.7794C89.0548 22.0757 90.3449 21.7239 91.8695 21.7239C92.5731 21.7239 93.2768 21.8412 93.8632 21.9585C94.5669 22.0757 95.1533 22.4276 95.6224 22.7794C96.0915 23.1312 96.5606 23.6004 96.9124 24.304C97.2643 24.8904 97.3815 25.7114 97.3815 26.5323V34.6245C97.3815 35.5627 97.3815 36.1491 97.4988 36.7355C97.6161 37.2046 97.6161 37.6737 97.7334 38.1428H95.3878L95.1533 35.9145C94.5669 36.5009 93.8632 37.0873 93.0423 37.6737C92.104 38.2601 91.0485 38.4947 89.8758 38.4947C89.2894 38.4947 88.703 38.3774 88.1166 38.2601C87.5302 38.0255 87.0611 37.791 86.7092 37.4392C86.2401 37.0873 86.0056 36.6182 85.771 36.0318C85.5365 35.4454 85.4192 34.859 85.4192 34.1554C85.4192 33.2172 85.5365 32.5135 85.8883 31.8098C86.2401 31.1061 86.8265 30.5198 87.6475 30.0506C88.4684 29.5815 89.4066 29.1124 90.6967 28.6433C91.9868 28.2915 93.5114 27.9396 95.2705 27.5878V26.7669C95.2705 25.7114 94.9187 24.8904 94.3323 24.5386C93.7459 24.0695 92.925 23.8349 91.9868 23.8349C91.4004 23.8349 90.814 23.9522 90.3449 24.0695C89.8757 24.1867 89.5239 24.4213 89.1721 24.6559C88.8202 24.8904 88.5857 25.125 88.3511 25.4768C88.1166 25.8286 87.9993 26.0632 87.882 26.2977L85.8883 25.125ZM95.2705 29.4643C90.2276 30.4025 87.6475 31.9271 87.6475 34.0381C87.6475 34.3899 87.7647 34.7418 87.882 35.0936C87.9993 35.4454 88.2339 35.68 88.4684 35.9145C88.703 36.1491 89.0548 36.2664 89.2894 36.3837C89.6412 36.5009 89.8758 36.5009 90.2276 36.5009C90.5794 36.5009 91.0485 36.3837 91.5176 36.2664C91.9868 36.1491 92.4559 35.9145 92.8077 35.68C93.2768 35.4454 93.6286 35.0936 94.0978 34.859C94.4496 34.5072 94.9187 34.1554 95.1533 33.8035V29.4643H95.2705Z" fill="#FF6900"></path><path d="M113.449 22.0757L107.702 39.5502C107.467 40.4884 107.116 41.1921 106.646 41.7784C106.295 42.3648 105.826 42.834 105.356 43.1858C104.887 43.5376 104.418 43.7722 103.832 43.8895C103.363 44.0067 102.776 44.124 102.307 44.124C101.955 44.124 101.604 44.124 101.369 44.0067C101.134 44.0067 100.9 43.8895 100.665 43.8895V42.013C100.783 42.013 101.017 42.013 101.252 42.1303C101.486 42.1303 101.721 42.1303 101.955 42.1303C102.307 42.1303 102.659 42.1303 103.128 42.013C103.597 41.8957 103.949 41.7785 104.301 41.5439C104.653 41.3093 105.005 40.9575 105.356 40.3711C105.708 39.902 105.943 39.1983 106.177 38.2601L100.548 21.9585H102.894L107.233 34.2727H107.35L111.103 21.9585H113.449V22.0757Z" fill="#FF6900"></path><path d="M115.442 25.125C115.911 24.1867 116.732 23.3658 117.671 22.7794C118.609 22.0757 119.899 21.7239 121.423 21.7239C122.127 21.7239 122.831 21.8412 123.417 21.9585C124.121 22.0757 124.707 22.4276 125.176 22.7794C125.646 23.1312 126.115 23.6004 126.466 24.304C126.818 24.8904 126.936 25.7114 126.936 26.5323V34.6245C126.936 35.5627 126.936 36.1491 127.053 36.7355C127.17 37.2046 127.17 37.6737 127.287 38.1428H124.942L124.707 35.9145C124.121 36.5009 123.417 37.0873 122.596 37.6737C121.658 38.2601 120.603 38.4947 119.43 38.4947C118.843 38.4947 118.257 38.3774 117.671 38.2601C117.084 38.0255 116.615 37.791 116.263 37.4392C115.794 37.0873 115.56 36.6182 115.325 36.0318C115.09 35.4454 114.973 34.859 114.973 34.1554C114.973 33.2172 115.09 32.5135 115.442 31.8098C115.794 31.1061 116.381 30.5198 117.201 30.0506C118.022 29.5815 118.961 29.1124 120.251 28.6433C121.541 28.2915 123.065 27.9396 124.825 27.5878V26.7669C124.825 25.7114 124.473 24.8904 123.886 24.5386C123.3 24.0695 122.479 23.8349 121.541 23.8349C120.954 23.8349 120.368 23.9522 119.899 24.0695C119.43 24.1867 119.078 24.4213 118.726 24.6559C118.374 24.8904 118.14 25.125 117.905 25.4768C117.671 25.8286 117.553 26.0632 117.436 26.2977L115.442 25.125ZM124.825 29.4643C119.782 30.4025 117.201 31.9271 117.201 34.0381C117.201 34.3899 117.319 34.7418 117.436 35.0936C117.553 35.4454 117.788 35.68 118.022 35.9145C118.257 36.1491 118.609 36.2664 118.843 36.3837C119.195 36.5009 119.43 36.5009 119.782 36.5009C120.133 36.5009 120.603 36.3837 121.072 36.2664C121.541 36.1491 122.01 35.9145 122.362 35.68C122.831 35.4454 123.183 35.0936 123.652 34.859C124.004 34.5072 124.473 34.1554 124.707 33.8035V29.4643H124.825Z" fill="#FF6900"></path><path d="M132.213 22.0758V16.7982H134.441V22.0758H138.194V23.9522H134.441V35.4455C134.441 35.7973 134.559 36.1491 134.91 36.2664C135.145 36.501 135.614 36.501 136.318 36.501C136.67 36.501 137.021 36.501 137.373 36.501C137.725 36.501 137.96 36.3837 138.312 36.3837V38.2601C138.077 38.3774 137.842 38.3774 137.373 38.3774C136.904 38.3774 136.435 38.4947 135.731 38.4947C134.559 38.4947 133.62 38.2601 133.151 37.9083C132.565 37.5565 132.33 36.8528 132.33 35.7973V23.9522H129.75V22.0758H132.213V22.0758Z" fill="#FF6900"></path><path d="M140.892 25.125C141.361 24.1867 142.182 23.3658 143.12 22.7794C144.058 22.0757 145.348 21.7239 146.873 21.7239C147.577 21.7239 148.28 21.8412 148.867 21.9585C149.57 22.0757 150.157 22.4276 150.626 22.7794C151.095 23.1312 151.564 23.6004 151.916 24.304C152.268 24.8904 152.385 25.7114 152.385 26.5323V34.6245C152.385 35.5627 152.385 36.1491 152.502 36.7355C152.619 37.2046 152.619 37.6737 152.737 38.1428H150.508L150.274 35.9145C149.688 36.5009 148.984 37.0873 148.163 37.6737C147.225 38.2601 146.169 38.4947 144.996 38.4947C144.41 38.4947 143.824 38.3774 143.237 38.2601C142.651 38.0255 142.182 37.791 141.83 37.4392C141.361 37.0873 141.126 36.6182 140.892 36.0318C140.657 35.4454 140.54 34.859 140.54 34.1554C140.54 33.2172 140.657 32.5135 141.009 31.8098C141.361 31.1061 141.947 30.5198 142.651 30.0506C143.472 29.5815 144.41 29.1124 145.7 28.6433C146.99 28.2915 148.515 27.9396 150.274 27.5878V26.7669C150.274 25.7114 149.922 24.8904 149.336 24.5386C148.749 24.0695 147.928 23.8349 146.99 23.8349C146.404 23.8349 145.817 23.9522 145.348 24.0695C144.879 24.1867 144.527 24.4213 144.175 24.6559C143.824 24.8904 143.589 25.125 143.354 25.4768C143.12 25.8286 143.003 26.0632 142.885 26.2977L140.892 25.125ZM150.274 29.4643C145.231 30.4025 142.651 31.9271 142.651 34.0381C142.651 34.3899 142.768 34.7418 142.885 35.0936C143.003 35.4454 143.237 35.68 143.472 35.9145C143.706 36.1491 144.058 36.2664 144.293 36.3837C144.645 36.5009 144.879 36.5009 145.231 36.5009C145.583 36.5009 146.052 36.3837 146.521 36.2664C146.99 36.1491 147.459 35.9145 147.811 35.68C148.28 35.4454 148.632 35.0936 149.101 34.859C149.453 34.5072 149.922 34.1554 150.157 33.8035V29.4643H150.274Z" fill="#FF6900"></path><path d="M171.032 15.86V34.6245C171.032 35.2109 171.032 35.7973 171.032 36.3837C171.032 36.9701 171.032 37.5564 171.149 38.1428H169.156L168.804 36.6182C168.452 37.0873 167.866 37.5564 167.162 37.9083C166.458 38.2601 165.52 38.4947 164.582 38.4947C163.878 38.4947 163.057 38.3774 162.354 38.1428C161.533 37.9083 160.829 37.4392 160.243 36.7355C159.656 36.1491 159.07 35.2109 158.601 34.1554C158.132 33.0999 158.014 31.6925 158.014 30.1679C158.014 28.6433 158.249 27.236 158.601 26.1805C159.07 25.125 159.539 24.304 160.125 23.6004C160.712 22.8967 161.415 22.4276 162.236 22.193C162.94 21.9585 163.761 21.7239 164.347 21.7239C165.168 21.7239 165.872 21.8412 166.576 22.193C167.279 22.5449 167.983 23.014 168.569 23.4831L168.687 23.6004V15.86H171.032ZM168.804 25.9459C168.217 25.2423 167.514 24.7731 166.81 24.304C166.106 23.8349 165.403 23.7176 164.699 23.7176C163.995 23.7176 163.409 23.8349 162.94 24.0695C162.354 24.304 161.884 24.6559 161.533 25.125C161.063 25.5941 160.829 26.2978 160.594 27.1187C160.36 27.9396 160.243 28.9952 160.243 30.1679C160.243 32.2789 160.594 33.8035 161.415 34.8591C162.236 35.9146 163.292 36.5009 164.699 36.5009C165.403 36.5009 166.106 36.3837 166.693 36.0318C167.279 35.68 167.983 35.0936 168.804 34.3899V25.9459Z" fill="#FF6900"></path><path d="M187.216 34.7418C186.982 35.2109 186.63 35.68 186.278 36.0318C185.926 36.501 185.575 36.8528 185.105 37.2046C184.636 37.5565 184.05 37.9083 183.346 38.0256C182.643 38.2601 181.939 38.3774 181.001 38.3774C180.063 38.3774 179.242 38.2601 178.421 37.9083C177.6 37.5565 176.896 37.0873 176.192 36.3837C175.489 35.68 175.02 34.8591 174.668 33.8036C174.316 32.7481 174.081 31.458 174.081 30.0507C174.081 28.7606 174.199 27.5878 174.55 26.5323C174.902 25.4768 175.254 24.6559 175.841 23.9522C176.427 23.2485 177.131 22.6621 177.952 22.3103C178.772 21.9585 179.711 21.7239 180.649 21.7239C181.47 21.7239 182.291 21.8412 182.994 22.193C183.698 22.4276 184.402 22.8967 184.988 23.4831C185.575 24.0695 186.044 24.7732 186.278 25.7114C186.63 26.6496 186.747 27.7051 186.747 28.9952V30.5198H176.31C176.31 31.458 176.427 32.1617 176.661 32.9826C176.896 33.6863 177.248 34.3899 177.717 34.8591C178.186 35.3282 178.655 35.7973 179.242 36.1491C179.828 36.501 180.414 36.6182 181.118 36.6182C182.056 36.6182 182.994 36.3837 183.698 35.9146C184.402 35.4454 185.105 34.7418 185.575 33.9208L187.216 34.7418ZM184.519 28.6433C184.519 27.1187 184.167 25.9459 183.464 25.0077C182.76 24.0695 181.822 23.6004 180.649 23.6004C179.242 23.6004 178.303 24.0695 177.6 25.0077C176.896 25.9459 176.427 27.1187 176.427 28.6433H184.519Z" fill="#FF6900"></path><path d="M191.321 34.0381C191.908 34.8591 192.494 35.4454 193.315 35.7973C194.136 36.2664 194.957 36.5009 196.012 36.5009C197.185 36.5009 198.123 36.2664 198.592 35.68C199.179 35.0936 199.413 34.5072 199.413 33.8036C199.413 33.0999 199.179 32.6308 198.71 32.1617C198.241 31.8098 197.654 31.458 196.951 31.2234C196.247 30.9889 195.543 30.7543 194.722 30.5198C193.901 30.2852 193.198 30.0507 192.494 29.6988C191.79 29.347 191.204 28.8779 190.735 28.2915C190.266 27.7051 190.031 27.0014 190.148 25.9459C190.148 24.5386 190.735 23.4831 191.673 22.6621C192.611 21.9585 193.901 21.4894 195.426 21.6066C195.895 21.6066 196.481 21.7239 197.068 21.8412C197.654 21.9585 198.123 22.193 198.592 22.4276C199.062 22.6621 199.531 23.014 199.883 23.3658C200.352 23.7176 200.586 24.0695 200.938 24.5386L199.413 25.9459C198.827 25.2423 198.123 24.6559 197.537 24.304C196.951 23.9522 196.13 23.7176 195.309 23.7176C194.37 23.7176 193.667 23.9522 193.198 24.4213C192.729 24.8904 192.494 25.4768 192.494 26.1805C192.494 26.7669 192.729 27.236 193.198 27.5878C193.667 27.9397 194.253 28.1742 194.957 28.4088C195.66 28.6433 196.364 28.8779 197.185 29.1124C198.006 29.347 198.71 29.6988 199.413 30.0507C200.117 30.4025 200.703 30.8716 201.173 31.5753C201.642 32.1617 201.876 32.9826 201.876 33.9208C201.876 34.7418 201.759 35.4454 201.407 36.0318C201.055 36.6182 200.703 37.0873 200.117 37.5564C199.648 37.9083 198.944 38.2601 198.358 38.4947C197.654 38.7292 196.951 38.8465 196.247 38.8465C194.957 38.8465 193.784 38.612 192.611 38.0256C191.438 37.5565 190.5 36.7355 189.797 35.7973L191.321 34.0381Z" fill="#FF6900"></path><path d="M205.395 22.0757V16.7982H207.623V22.0757H211.376V23.9522H207.623V35.4454C207.623 35.7973 207.74 36.1491 208.092 36.2664C208.327 36.5009 208.796 36.5009 209.499 36.5009C209.851 36.5009 210.203 36.5009 210.555 36.5009C210.907 36.5009 211.141 36.3837 211.493 36.3837V38.2601C211.258 38.3774 211.024 38.3774 210.555 38.3774C210.086 38.3774 209.617 38.4947 208.913 38.4947C207.74 38.4947 206.802 38.2601 206.333 37.9083C205.746 37.5564 205.512 36.8528 205.512 35.7973V23.9522H202.932V22.0757H205.395V22.0757Z" fill="#FF6900"></path><path d="M226.622 34.7418C226.387 35.2109 226.036 35.68 225.684 36.0318C225.332 36.501 224.98 36.8528 224.511 37.2046C224.042 37.5565 223.455 37.9083 222.752 38.0256C222.048 38.2601 221.344 38.3774 220.406 38.3774C219.468 38.3774 218.647 38.2601 217.826 37.9083C217.005 37.5565 216.301 37.0873 215.598 36.3837C214.894 35.68 214.425 34.8591 214.073 33.8036C213.721 32.7481 213.487 31.458 213.487 30.0507C213.487 28.7606 213.604 27.5878 213.956 26.5323C214.308 25.4768 214.66 24.6559 215.246 23.9522C215.832 23.2485 216.536 22.6621 217.357 22.3103C218.178 21.9585 219.116 21.7239 220.054 21.7239C220.875 21.7239 221.696 21.8412 222.4 22.193C223.104 22.4276 223.807 22.8967 224.394 23.4831C224.98 24.0695 225.449 24.7732 225.684 25.7114C226.036 26.6496 226.153 27.7051 226.153 28.9952V30.5198H215.598C215.598 31.458 215.715 32.1617 215.95 32.9826C216.184 33.6863 216.536 34.3899 217.005 34.8591C217.474 35.3282 217.943 35.7973 218.53 36.1491C219.116 36.501 219.702 36.6182 220.406 36.6182C221.344 36.6182 222.283 36.3837 222.986 35.9146C223.69 35.4454 224.394 34.7418 224.863 33.9208L226.622 34.7418ZM223.807 28.6433C223.807 27.1187 223.455 25.9459 222.752 25.0077C222.048 24.0695 221.11 23.6004 219.937 23.6004C218.53 23.6004 217.591 24.0695 216.888 25.0077C216.184 25.9459 215.715 27.1187 215.715 28.6433H223.807Z" fill="#FF6900"></path><path d="M229.085 15.86H231.313V30.2852H231.43L237.881 22.193H240.578L235.887 28.1742L241.282 38.2601H238.702L234.48 30.0507L231.548 33.4517V38.1428H229.319V15.86H229.085Z" fill="#FF6900"></path><path d="M31.8231 58.3147C16.2251 59.3702 2.6209 47.5251 1.5654 31.8098C0.509899 16.2118 12.355 2.6076 28.0702 1.5521C43.6682 0.613877 57.2725 12.459 58.328 28.0569C59.3835 43.7722 47.5384 57.2591 31.8231 58.3147Z" fill="#FF6900"></path><path d="M51.174 33.3344C50.0012 32.1617 48.7112 30.9889 47.3038 30.0507C45.8965 28.9952 42.8473 26.1805 41.909 26.6496C40.9708 27.1187 42.2609 28.0569 42.8473 28.6433C43.7855 29.5815 46.4829 31.9271 46.952 32.748C47.3038 33.3344 43.6682 30.5198 42.3782 29.4643C41.0881 28.4088 37.8043 25.8286 37.1006 26.1805C36.0451 26.7669 36.5143 27.3533 37.3352 28.2915C38.1562 29.2297 44.9583 34.0381 44.4892 34.5072C44.3719 34.6245 41.909 33.0999 39.798 31.9271C37.687 30.637 34.7551 28.2915 33.8169 28.4088C32.8786 28.4088 32.2923 29.347 32.7614 30.1679C32.9959 30.637 36.2797 32.6308 38.6253 34.2727C40.2672 35.4454 41.909 36.5009 41.6745 36.7355C41.5572 36.8528 38.2734 35.4454 36.0451 34.1554C33.6996 32.8653 32.175 31.5753 31.1195 32.2789C30.064 32.8653 30.7676 33.8036 32.175 34.7418C33.465 35.5627 39.4462 38.9638 40.5017 39.7847C41.5572 40.6057 44.3719 42.7167 44.0201 44.3586C43.7855 45.6486 38.6253 44.7104 37.2179 45.2968C35.8106 45.8832 35.2242 46.4696 35.2242 47.2905C35.2242 48.1115 36.2797 48.346 37.9216 47.8769C39.6808 47.4078 43.6682 47.6424 47.1866 47.8769C48.8285 47.9942 50.0012 47.9942 51.5258 48.2287C53.6368 45.6486 55.396 42.5994 56.5688 39.4329C55.6306 37.791 53.8714 35.7973 51.174 33.3344Z" fill="white"></path><path d="M8.95393 26.1805C10.1267 27.3533 11.4168 28.526 12.8241 29.5816C14.2314 30.6371 17.2807 33.4517 18.2189 32.9826C19.1571 32.5135 17.8671 31.5753 17.2807 30.9889C16.2252 29.9334 13.5278 27.5878 13.1759 26.7669C12.8241 26.1805 16.4597 28.9952 17.7498 30.0507C19.0398 31.1062 22.3236 33.8036 23.0273 33.3344C24.0828 32.7481 23.6137 32.1617 22.7927 31.2234C21.9718 30.2852 15.1697 25.4768 15.6388 25.0077C15.7561 24.8904 18.2189 26.415 20.3299 27.7051C22.4409 28.9952 25.3729 31.3407 26.3111 31.2234C27.2493 31.2234 27.8357 30.2852 27.3666 29.4643C27.132 28.9952 23.8482 27.0014 21.5027 25.3595C19.8608 24.1868 18.2189 23.014 18.4534 22.8967C18.5707 22.7794 21.8545 24.1868 24.0828 25.4768C26.4284 26.7669 27.953 28.0569 29.0085 27.3533C30.064 26.7669 29.3603 25.8287 27.953 24.8904C26.6629 24.0695 20.6817 20.6684 19.6262 19.8475C18.5707 19.0265 15.8733 16.9155 16.1079 15.2736C16.3424 13.9836 21.5027 14.9218 22.91 14.3354C24.2001 13.749 24.9037 13.1626 24.9037 12.3417C24.9037 11.5207 23.8482 11.2862 22.2063 11.7553C20.4472 12.2244 16.4597 11.9899 12.9414 11.7553C11.2995 11.638 10.0094 11.7553 8.48482 11.5207C6.13926 14.1009 4.49736 16.9155 3.32458 20.082C4.49736 21.6066 6.49109 23.8349 8.95393 26.1805Z" fill="white"></path></svg> 